<?xml version="1.0" encoding="UTF-8"?>
<svg version="1.1" xmlns="http://www.w3.org/2000/svg" width="512" height="512">
<path d="M0 0 C70.62 0 141.24 0 214 0 C214 37.29 214 74.58 214 113 C233.14 113 252.28 113 272 113 C272 200.45 272 287.9 272 378 C282.23 378 292.46 378 303 378 C303.09220549 385.20483445 303.17173512 392.40759284 303.21972656 399.61254883 C303.2397483 402.0595598 303.26697398 404.50652349 303.30175781 406.95336914 C303.35069163 410.48595907 303.37306416 414.01791229 303.390625 417.55078125 C303.41127014 418.63144363 303.43191528 419.71210602 303.45318604 420.82551575 C303.45689016 433.57926681 298.4684184 445.39564991 289.75 454.75 C276.9079967 466.66670612 261.84627715 468.60283794 245.1237793 468.50793457 C243.33990566 468.51255107 241.55603584 468.51890899 239.77217388 468.52684355 C234.9010586 468.54345712 230.030259 468.53532695 225.15914297 468.52289867 C219.89388544 468.51381772 214.62868074 468.52783298 209.36343384 468.53881836 C199.06098319 468.55657571 188.75864932 468.55277599 178.45619416 468.5411678 C170.08084295 468.53212279 161.70552438 468.5309141 153.33016968 468.53526306 C152.13672839 468.53587599 150.9432871 468.53648893 149.71368092 468.53712043 C147.28899136 468.53839937 144.86430181 468.53969623 142.43961227 468.5410108 C119.71995314 468.55240844 97.00035863 468.53931567 74.2807101 468.51780933 C54.7994124 468.49993911 35.31821005 468.50304345 15.83691406 468.52148438 C-6.80318235 468.54290547 -29.44322216 468.55130988 -52.08332729 468.53903532 C-54.49894141 468.53776117 -56.91455554 468.53650368 -59.33016968 468.53526306 C-60.51860122 468.53464596 -61.70703275 468.53402886 -62.93147737 468.53339306 C-71.29373843 468.52994388 -79.6559635 468.53575918 -88.01821899 468.54518127 C-98.21335955 468.55641639 -108.40837696 468.55332935 -118.60350347 468.5320583 C-123.80210727 468.52156832 -129.00050598 468.51739108 -134.19910812 468.53065491 C-138.96363503 468.5426271 -143.72776791 468.535937 -148.49225938 468.5147447 C-150.21012179 468.51029903 -151.92801791 468.51249878 -153.64585841 468.52224785 C-169.6373439 468.60599757 -183.17710493 465.81422496 -195.47265625 454.78125 C-203.31417525 446.71718372 -209.14126882 436.20275386 -209.11352539 424.77246094 C-209.11344986 423.73168396 -209.11337433 422.69090698 -209.11329651 421.61859131 C-209.10813522 420.50179993 -209.10297394 419.38500854 -209.09765625 418.234375 C-209.0962413 417.08584045 -209.09482635 415.93730591 -209.09336853 414.75396729 C-209.08777143 411.08595169 -209.07521944 407.41799715 -209.0625 403.75 C-209.05748463 401.26302171 -209.05292178 398.77604247 -209.04882812 396.2890625 C-209.0386539 390.19266589 -209.01907775 384.09640129 -209 378 C-198.77 378 -188.54 378 -178 378 C-178 290.55 -178 203.1 -178 113 C-119.26 113 -60.52 113 0 113 C0 75.71 0 38.42 0 0 Z M28 28 C28 74.2 28 120.4 28 168 C18.76 168 9.52 168 0 168 C0 159.09 0 150.18 0 141 C-49.5 141 -99 141 -150 141 C-150 219.21 -150 297.42 -150 378 C-104.13 378 -58.26 378 -11 378 C-11 387.24 -11 396.48 -11 406 C-67.43 406 -123.86 406 -182 406 C-182.37754615 422.4952848 -182.37754615 422.4952848 -174.890625 435.4921875 C-169.83664155 439.52284372 -164.83550133 440.37525742 -158.50801182 440.38031673 C-157.42062083 440.38730661 -157.42062083 440.38730661 -156.31126234 440.3944377 C-153.8871369 440.40636897 -151.46357389 440.39699975 -149.03944397 440.38768005 C-147.28193571 440.39185379 -145.52443014 440.39733153 -143.76692957 440.40399987 C-138.94106578 440.41846789 -134.11537258 440.41420549 -129.2894994 440.40683305 C-124.08354212 440.40210707 -118.87762204 440.41460616 -113.67167664 440.42485046 C-103.47437692 440.44205477 -93.27713879 440.44287511 -83.07982833 440.43763756 C-74.79249005 440.43359779 -66.50516998 440.43503712 -58.21783257 440.44038582 C-57.03878689 440.44113424 -55.85974121 440.44188266 -54.64496688 440.44265376 C-52.24982146 440.44418522 -49.85467605 440.44572357 -47.45953064 440.44726873 C-24.99376981 440.46099959 -2.52804379 440.45555188 19.93771625 440.44408352 C40.49545546 440.43414973 61.05310468 440.44709332 81.61083 440.47101771 C102.71521121 440.49539342 123.81955048 440.50502039 144.92394549 440.49836498 C156.77420802 440.49486947 168.62440134 440.49712679 180.47465324 440.51461601 C190.56211308 440.52931883 200.64945495 440.5299985 210.73691242 440.5125451 C215.88422836 440.50401709 221.03133337 440.50192956 226.17863846 440.51719666 C230.89070978 440.53099991 235.60238861 440.52633684 240.31443698 440.50695742 C242.01893368 440.5031837 243.7234615 440.50615876 245.42793059 440.51656907 C259.2913004 440.6135293 259.2913004 440.6135293 270.8125 433.3125 C276.82967432 424.20077889 276 417.69742302 276 406 C219.57 406 163.14 406 105 406 C105 396.76 105 387.52 105 378 C150.87 378 196.74 378 244 378 C244 299.79 244 221.58 244 141 C234.1 141 224.2 141 214 141 C214 209.64 214 278.28 214 349 C143.38 349 72.76 349 0 349 C0 311.05 0 273.1 0 234 C9.24 234 18.48 234 28 234 C28 262.71 28 291.42 28 321 C80.14 321 132.28 321 186 321 C186 224.31 186 127.62 186 28 C133.86 28 81.72 28 28 28 Z " fill="#fff" transform="translate(209,22)"/>
<path d="M0 0 C4.03519187 1.61867813 6.77297208 4.47036784 9.79418945 7.48779297 C10.36208694 8.04736694 10.92998444 8.60694092 11.51509094 9.18347168 C13.38662112 11.03094547 15.25043948 12.8859558 17.11328125 14.7421875 C18.41025748 16.03019817 19.70731158 17.31813044 21.00444031 18.60598755 C23.71901243 21.30408187 26.42917018 24.00652876 29.13696289 26.71142578 C32.61354044 30.18260318 36.10600617 33.63731552 39.60259724 37.08831596 C42.28494145 39.74098475 44.95602836 42.40476986 47.62407494 45.07181168 C48.90746146 46.35098144 50.19498557 47.6260135 51.48662758 48.89684677 C53.28733433 50.67082167 55.07169825 52.45977379 56.8527832 54.25341797 C57.39243713 54.77823761 57.93209106 55.30305725 58.48809814 55.84378052 C61.94737373 59.37329428 61.94737373 59.37329428 62.16729736 61.99227905 C60.38658693 65.05505444 57.98049308 67.40947715 55.47045898 69.87011719 C54.60704895 70.73418434 54.60704895 70.73418434 53.72619629 71.6157074 C51.82318708 73.51662777 49.90977485 75.40670358 47.99609375 77.296875 C46.67407568 78.61329748 45.35271872 79.93038417 44.03199768 81.24810791 C40.55497311 84.71368093 37.06903342 88.17015039 33.58117676 91.62481689 C30.02331141 95.15198828 26.4739288 98.68767287 22.92382812 102.22265625 C15.9575066 109.15680811 8.98173961 116.08137469 2 123 C-3.00886366 120.60603239 -6.39713201 117.00943005 -10.3125 113.125 C-11.06595703 112.40441406 -11.81941406 111.68382812 -12.59570312 110.94140625 C-13.30275391 110.24144531 -14.00980469 109.54148437 -14.73828125 108.8203125 C-15.38837158 108.18367676 -16.03846191 107.54704102 -16.70825195 106.89111328 C-17.13452881 106.2670459 -17.56080566 105.64297852 -18 105 C-14.73701688 91.94806753 -0.5131488 84.5131488 9 75 C-54.36 75 -117.72 75 -183 75 C-183 109.32 -183 143.64 -183 179 C-192.24 179 -201.48 179 -211 179 C-211 135.44 -211 91.88 -211 47 C-192.086875 46.855625 -173.17375 46.71125 -153.6875 46.5625 C-142.15753932 46.47270256 -130.62758458 46.38282645 -119.09765625 46.2890625 C-118.40163717 46.28340664 -117.70561808 46.27775079 -116.98850751 46.27192354 C-88.53349377 46.04031321 -60.07914 45.75981127 -31.625 45.4375 C-30.64469692 45.4263982 -29.66439384 45.4152964 -28.65438461 45.40385818 C-17.10288144 45.2727336 -5.55141823 45.13840714 6 45 C5.26773193 44.29391602 4.53546387 43.58783203 3.78100586 42.86035156 C1.07182935 40.24156084 -1.62085838 37.60634926 -4.30883789 34.96582031 C-5.47528968 33.82453907 -6.64618586 32.68778212 -7.8215332 31.55566406 C-9.50876271 29.92897255 -11.17942172 28.28676277 -12.84765625 26.640625 C-13.37778824 26.13629944 -13.90792023 25.63197388 -14.45411682 25.11236572 C-15.91040039 23.65722656 -15.91040039 23.65722656 -18 21 C-17.87545284 17.2191763 -15.81415256 15.46272695 -13.18359375 12.890625 C-12.03793945 11.75947266 -12.03793945 11.75947266 -10.86914062 10.60546875 C-10.06669922 9.82816406 -9.26425781 9.05085937 -8.4375 8.25 C-7.22803711 7.06083984 -7.22803711 7.06083984 -5.99414062 5.84765625 C-4.00266222 3.89152954 -2.00452279 1.94274281 0 0 Z " fill="#fff" transform="translate(305,162)"/>
</svg>
